<?xml version="1.0" standalone="no"?>
<!DOCTYPE svg PUBLIC "-//W3C//DTD SVG 20010904//EN"
 "http://www.w3.org/TR/2001/REC-SVG-20010904/DTD/svg10.dtd">
<svg version="1.0" xmlns="http://www.w3.org/2000/svg"
 width="1923.000000pt" height="1861.000000pt" viewBox="0 0 1923.000000 1861.000000"
 preserveAspectRatio="xMidYMid meet">

<g transform="translate(0.000000,1861.000000) scale(0.100000,-0.100000)"
fill="#000000" stroke="none">
<path d="M9270 18451 c0 -14 -34 -19 -185 -31 -856 -63 -1686 -280 -2435 -638
-939 -447 -1745 -1084 -2389 -1886 -264 -328 -505 -690 -664 -995 -33 -64 -68
-127 -77 -141 -30 -45 -211 -441 -267 -585 -120 -306 -201 -552 -267 -807 -47
-179 -109 -462 -126 -572 -48 -312 -62 -434 -94 -816 -9 -97 -19 -166 -25
-168 -15 -5 -15 -349 -1 -354 6 -2 17 -80 25 -173 26 -295 46 -486 66 -625 11
-74 25 -164 30 -200 17 -117 84 -411 140 -620 182 -676 484 -1347 874 -1940
254 -387 487 -677 846 -1052 182 -191 590 -541 828 -712 164 -118 440 -299
581 -381 163 -95 597 -315 735 -373 534 -222 1072 -380 1575 -461 247 -39 484
-67 695 -81 169 -12 195 -16 195 -31 0 -5 94 -9 230 -9 139 0 230 4 230 10 0
13 39 18 255 35 446 35 738 82 1185 190 127 31 222 58 345 96 663 210 1223
477 1770 846 261 175 311 213 569 423 114 93 403 359 517 477 575 591 1051
1301 1367 2033 312 724 490 1458 552 2270 12 157 19 200 31 200 5 0 9 113 9
255 0 149 -4 255 -9 255 -13 0 -19 37 -31 195 -52 704 -197 1361 -443 2000
-284 738 -702 1432 -1218 2020 -195 223 -316 346 -589 599 -89 83 -418 349
-530 429 -639 456 -1245 761 -1980 995 -457 147 -1034 255 -1550 293 -157 11
-190 16 -190 30 0 5 -127 9 -290 9 -163 0 -290 -4 -290 -9z m880 -126 c730
-63 1482 -257 2129 -546 361 -162 814 -416 1089 -610 379 -267 631 -479 937
-784 479 -480 857 -990 1169 -1582 184 -348 294 -606 423 -988 297 -882 393
-1787 293 -2780 -37 -362 -86 -673 -121 -755 -10 -25 -26 -78 -34 -119 -40
-193 -191 -670 -292 -921 -121 -301 -367 -806 -451 -927 -11 -15 -47 -73 -80
-128 -33 -56 -86 -141 -118 -190 -74 -115 -356 -493 -420 -565 -27 -30 -75
-87 -107 -126 -80 -99 -422 -449 -540 -553 -54 -47 -133 -116 -175 -153 -225
-197 -571 -447 -832 -603 -63 -38 -137 -83 -165 -101 -80 -51 -386 -206 -565
-287 -470 -212 -936 -362 -1450 -466 -458 -92 -797 -125 -1305 -125 -623 0
-1083 55 -1655 199 -129 32 -184 48 -458 129 -138 41 -418 148 -592 226 -63
29 -137 61 -163 71 -57 23 -397 190 -447 221 -19 11 -62 38 -95 58 -33 20
-103 61 -155 90 -214 121 -588 391 -841 607 -126 108 -466 444 -600 593 -90
100 -334 402 -407 505 -23 33 -63 89 -89 125 -144 201 -331 520 -487 830 -168
336 -269 588 -389 970 -312 991 -384 1992 -222 3060 80 522 266 1148 492 1655
238 533 528 1012 881 1455 309 387 686 767 1044 1052 413 329 736 538 1181
764 279 141 429 208 682 301 668 246 1336 383 2025 417 161 8 744 -4 910 -19z"/>
<path d="M9279 18040 c-14 -8 -15 -41 -12 -282 2 -168 7 -276 14 -283 5 -5 38
-9 72 -8 34 0 148 1 253 2 105 0 203 5 217 10 35 13 51 45 37 71 -10 19 -18
19 -143 14 -190 -9 -178 -26 -183 251 -3 160 -7 221 -17 227 -17 11 -219 9
-238 -2z"/>
<path d="M9981 17998 c-5 -13 -15 -86 -21 -163 -6 -77 -18 -179 -26 -228 -17
-104 -18 -134 -3 -142 12 -8 95 -20 244 -35 55 -6 146 -17 203 -26 95 -14 105
-14 128 1 18 12 24 23 22 43 -3 31 -17 34 -195 51 -93 8 -110 13 -126 33 -15
18 -17 32 -12 68 11 70 16 73 120 66 49 -3 111 -12 137 -18 57 -14 78 -2 78
48 0 39 5 38 -154 54 -119 12 -141 20 -151 49 -8 27 12 98 30 105 17 6 175
-10 225 -24 54 -15 78 -12 91 11 16 30 -3 66 -38 73 -15 3 -91 13 -168 22
-382 42 -372 42 -384 12z"/>
<path d="M8298 17934 c-3 -3 -43 -12 -89 -20 -80 -14 -119 -33 -119 -60 0 -20
-160 -497 -171 -510 -5 -7 -26 -14 -47 -17 -20 -2 -91 -25 -157 -51 -66 -25
-130 -46 -142 -46 -16 0 -28 11 -43 40 -29 57 -27 96 8 113 33 17 167 63 204
71 37 8 52 37 37 70 -17 36 -41 40 -89 16 -81 -41 -194 -78 -216 -70 -27 10
-58 85 -45 108 5 10 69 39 148 67 121 44 138 53 141 75 7 46 -47 63 -110 36
-59 -26 -292 -113 -363 -136 -38 -13 -78 -31 -88 -40 -17 -16 -18 -19 -2 -56
26 -62 152 -416 159 -445 7 -33 32 -44 60 -26 12 8 102 42 201 77 99 35 212
76 250 93 39 16 90 36 115 45 25 8 57 20 73 25 23 8 27 15 27 51 0 44 27 98
57 114 20 11 197 52 254 59 41 5 67 -15 100 -79 25 -49 51 -54 134 -29 37 12
84 21 105 21 37 0 70 20 70 41 0 6 -24 36 -53 67 -30 31 -112 129 -182 217
-71 88 -136 165 -145 172 -15 13 -72 18 -82 7z m-44 -238 c69 -81 61 -100 -48
-119 -84 -14 -93 -7 -77 59 20 79 38 114 59 114 11 0 39 -23 66 -54z"/>
<path d="M10769 17887 c-42 -27 -73 -89 -94 -182 -8 -38 -22 -95 -30 -125 -26
-94 -21 -135 23 -181 32 -35 49 -43 127 -63 50 -13 114 -31 144 -40 30 -9 78
-16 108 -16 34 0 63 -7 84 -19 18 -11 61 -27 96 -37 81 -22 87 -17 109 96 8
47 25 107 37 134 15 35 18 53 10 65 -10 17 -60 37 -128 51 -22 4 -84 20 -137
34 -90 24 -128 26 -128 6 0 -5 -3 -15 -6 -23 -8 -21 31 -57 61 -57 14 0 34 -9
45 -20 18 -18 18 -23 5 -65 -24 -81 -43 -91 -125 -65 -33 10 -62 27 -73 42
-19 25 -19 27 6 124 48 191 57 214 83 225 19 7 59 0 162 -26 75 -19 157 -41
181 -50 56 -19 58 -19 71 5 14 26 5 57 -20 70 -20 11 -133 41 -315 86 -55 14
-123 31 -151 39 -70 21 -105 19 -145 -8z"/>
<path d="M11594 17655 c-7 -19 -14 -37 -14 -39 0 -12 -133 -362 -150 -396 -15
-30 -17 -41 -7 -53 15 -20 170 -79 211 -81 37 -1 37 -1 112 214 32 91 70 191
85 224 15 32 25 64 23 71 -5 12 -206 95 -232 95 -7 0 -20 -16 -28 -35z"/>
<path d="M12048 17483 c-40 -28 -64 -62 -103 -151 -33 -75 -34 -83 -23 -119
12 -36 21 -42 149 -108 75 -38 144 -76 153 -84 36 -30 2 -96 -45 -84 -10 3
-87 41 -170 84 -118 62 -155 77 -165 68 -20 -16 -17 -63 4 -82 9 -8 119 -65
243 -126 248 -122 276 -129 327 -86 36 30 122 194 122 231 0 56 -34 83 -228
185 -46 24 -88 52 -93 62 -14 25 6 57 37 57 25 0 246 -106 294 -141 15 -12 33
-17 43 -13 21 8 33 52 20 73 -13 22 -460 242 -503 247 -23 4 -44 -1 -62 -13z"/>
<path d="M6610 17330 c-36 -22 -70 -39 -76 -40 -19 0 -64 -41 -64 -57 0 -8 9
-27 19 -42 23 -32 196 -376 205 -408 4 -11 14 -24 22 -27 9 -3 107 40 232 104
280 142 282 143 282 179 0 59 -19 57 -148 -12 -152 -82 -155 -84 -178 -54 -11
13 -59 107 -109 210 -58 119 -95 186 -105 186 -8 0 -44 -17 -80 -39z"/>
<path d="M9205 17194 c-22 -2 -101 -8 -175 -14 -635 -52 -1275 -215 -1839
-470 -1194 -541 -2145 -1455 -2726 -2620 -271 -543 -446 -1107 -526 -1690 -47
-349 -53 -434 -53 -810 0 -446 17 -625 104 -1120 39 -217 152 -614 242 -850
100 -260 236 -558 329 -720 268 -466 487 -772 788 -1100 479 -522 1053 -949
1696 -1261 347 -168 762 -317 1095 -392 302 -69 352 -78 690 -127 199 -28 746
-39 1065 -20 687 41 1417 240 2070 565 900 447 1644 1108 2204 1958 342 518
615 1148 751 1732 11 50 27 117 35 150 32 135 75 409 102 660 25 229 25 832 0
1065 -39 362 -89 626 -186 985 -40 146 -158 488 -216 625 -88 208 -232 499
-330 665 -145 247 -349 542 -493 714 -30 36 -86 104 -126 151 -119 143 -382
405 -556 554 -207 178 -330 272 -545 418 -537 363 -1097 615 -1727 777 -324
84 -540 122 -888 157 -143 14 -692 27 -785 18z m248 -2340 c165 -148 540 -204
977 -145 227 31 384 27 507 -13 94 -30 110 -51 74 -95 -103 -127 -214 -340
-257 -491 -38 -139 -45 -342 -15 -497 25 -132 71 -290 107 -370 64 -142 130
-398 144 -554 10 -121 1 -274 -21 -366 -39 -156 -163 -372 -264 -459 -144
-125 -444 -300 -690 -404 -156 -66 -271 -127 -385 -203 -126 -84 -206 -143
-215 -157 -11 -17 -51 -11 -71 12 -40 45 -207 144 -409 243 -115 56 -289 141
-385 188 -210 103 -331 186 -466 321 -198 199 -284 408 -284 692 0 175 27 309
122 609 103 324 119 386 125 485 13 216 -38 494 -121 664 -48 98 -133 235
-173 277 -31 33 -28 69 8 86 83 40 150 48 389 47 129 0 285 -6 345 -13 145
-17 376 -15 472 5 150 31 293 90 373 156 19 15 41 28 48 28 8 0 37 -21 65 -46z
m1586 -3088 c10 -12 9 -20 -5 -41 -16 -24 -43 -45 -60 -45 -7 0 3 77 12 92 8
13 40 9 53 -6z m-159 -265 c0 -14 -40 -60 -62 -72 -36 -19 -32 1 7 41 38 39
55 49 55 31z m-273 -158 c6 -15 -27 -53 -47 -53 -16 0 -18 28 -4 49 18 25 42
27 51 4z m80 -108 c-15 -14 -37 -25 -49 -25 -18 0 -19 2 -7 18 21 26 32 32 59
32 l25 -1 -28 -24z m-977 -380 c17 -21 -9 -59 -59 -85 -22 -11 -43 -25 -46
-31 -10 -15 -83 -45 -132 -53 -28 -5 -47 -16 -62 -37 -46 -62 -85 -26 -73 66
9 72 30 90 65 57 31 -30 46 -28 98 12 43 34 149 83 180 85 9 1 22 -6 29 -14z
m-580 -30 c87 -36 150 -85 150 -117 0 -26 -27 -34 -64 -19 -17 7 -45 18 -61
25 -38 14 -112 71 -126 98 -11 20 -6 48 9 48 4 0 46 -16 92 -35z m720 -151
c103 -21 120 -29 120 -58 0 -13 -6 -29 -14 -35 -20 -17 -146 -3 -244 26 -90
28 -114 50 -86 78 19 19 92 15 224 -11z m-750 2 c19 -24 8 -60 -20 -67 -152
-41 -265 -61 -292 -53 -27 8 -22 49 8 73 14 11 42 23 63 26 20 3 61 11 91 19
76 18 135 19 150 2z m-2449 -1667 c70 -21 73 -27 234 -454 46 -121 100 -260
120 -310 36 -87 86 -218 168 -435 21 -58 40 -116 40 -130 l2 -25 -182 -3
c-169 -2 -183 -1 -200 17 -10 11 -42 86 -71 168 -71 196 -82 223 -103 234 -10
5 -103 9 -207 9 -176 0 -190 -1 -207 -20 -10 -11 -48 -104 -84 -207 -59 -169
-69 -188 -93 -197 -39 -14 -72 16 -65 59 8 42 400 1203 420 1241 9 17 31 38
49 47 39 19 125 22 179 6z m1477 -16 c10 -15 13 -130 11 -616 -1 -462 1 -601
11 -612 10 -12 48 -15 219 -15 171 0 210 -3 229 -16 24 -17 29 -53 10 -72 -19
-19 -832 -17 -851 2 -11 12 -14 119 -13 672 1 655 1 658 22 669 12 6 88 9 184
8 146 -1 166 -4 178 -20z m1806 12 c275 -44 428 -197 482 -483 22 -119 15
-309 -16 -407 -40 -128 -89 -213 -174 -302 -62 -65 -94 -91 -154 -120 l-76
-38 -411 -3 c-332 -2 -414 0 -423 10 -15 19 -28 1299 -13 1327 6 11 21 21 33
23 13 2 165 4 339 6 250 2 336 0 413 -13z m1951 -10 c33 -9 98 -35 145 -57
115 -55 237 -175 297 -293 96 -187 94 -427 -7 -640 -105 -222 -311 -353 -580
-371 -146 -10 -258 12 -400 78 -50 24 -88 53 -160 127 -80 81 -103 111 -143
191 -56 112 -77 205 -77 333 0 160 34 257 137 394 100 133 211 200 403 244
102 23 290 20 385 -6z m-4324 -1060 c56 -20 117 -79 125 -121 10 -53 -31 -111
-106 -150 -26 -13 -57 -18 -117 -18 -76 0 -87 3 -125 30 -88 62 -111 135 -61
195 60 70 185 99 284 64z m1412 -1 c51 -17 110 -77 122 -121 9 -38 -36 -107
-92 -140 -40 -23 -57 -27 -127 -27 -93 0 -124 12 -187 75 -32 32 -39 46 -39
79 0 34 6 46 41 79 22 22 59 46 82 55 56 19 143 20 200 0z m1810 2 c82 -30
147 -108 132 -157 -10 -32 -65 -88 -104 -109 -116 -58 -281 -18 -335 82 -13
25 -17 44 -12 64 10 40 85 109 132 122 55 14 143 13 187 -2z m1959 0 c135 -40
177 -149 89 -229 -49 -44 -100 -61 -181 -61 -80 0 -146 29 -190 82 -44 53 -41
97 8 144 73 72 172 95 274 64z"/>
<path d="M9395 14707 c-16 -12 -17 -18 -6 -48 9 -25 11 -186 10 -602 -1 -528
0 -570 17 -588 17 -18 37 -19 605 -19 521 0 589 2 603 16 19 18 19 24 6 59
-48 126 -54 382 -14 564 29 133 95 295 160 392 94 142 71 148 -416 100 -113
-12 -250 -21 -306 -21 -198 0 -424 51 -561 126 -69 38 -72 39 -98 21z m362
-363 c7 -20 -12 -33 -38 -27 -22 6 -24 14 -7 31 17 17 37 15 45 -4z m-92 -99
c0 -34 -4 -40 -32 -52 l-33 -13 0 35 c0 37 31 80 53 72 7 -2 12 -21 12 -42z
m325 19 c0 -8 -5 -12 -10 -9 -6 4 -8 11 -5 16 9 14 15 11 15 -7z m110 -3 c0
-12 -20 -25 -27 -18 -7 7 6 27 18 27 5 0 9 -4 9 -9z m190 -24 c0 -16 -39 -53
-100 -95 -25 -18 -70 -52 -100 -77 -75 -61 -101 -71 -117 -48 -18 24 -12 49
12 46 40 -5 66 8 77 37 6 20 17 30 30 30 29 0 57 17 116 72 53 48 82 60 82 35z
m-250 -15 c35 5 40 -13 14 -50 -12 -17 -24 -22 -47 -20 -27 2 -33 8 -35 31 -5
43 5 62 23 47 8 -7 28 -10 45 -8z m-102 -264 c-5 -15 -50 -39 -58 -32 -6 7 38
44 52 44 5 0 8 -6 6 -12z m92 -68 c0 -5 -4 -10 -10 -10 -5 0 -10 5 -10 10 0 6
5 10 10 10 6 0 10 -4 10 -10z m-10 -93 c0 -49 -64 -68 -76 -23 -8 35 2 46 42
46 29 0 34 -3 34 -23z"/>
<path d="M9260 14680 c-54 -36 -196 -84 -305 -104 -175 -32 -330 -29 -655 10
-224 26 -316 29 -345 10 -34 -22 -32 -39 15 -110 65 -100 137 -265 171 -392
29 -107 32 -137 37 -295 3 -140 1 -188 -12 -239 -19 -72 -14 -98 17 -104 12
-3 104 -7 204 -9 157 -3 183 -2 188 12 4 9 -6 26 -25 44 -19 17 -29 35 -26 44
3 8 6 17 6 19 0 2 11 4 23 4 28 0 52 -24 61 -63 12 -49 57 -67 167 -67 79 0
101 3 119 18 27 22 20 58 -13 73 -12 6 -31 25 -42 42 -17 26 -28 33 -62 35
-34 3 -42 0 -48 -17 -9 -30 -39 -26 -98 13 -35 22 -65 34 -91 34 -22 1 -48 9
-59 19 -21 19 -104 187 -132 269 -33 97 -57 480 -30 490 32 13 115 -57 150
-126 17 -33 31 -96 45 -208 11 -84 31 -128 66 -144 20 -10 28 -8 48 11 14 13
30 36 36 52 10 24 9 33 -10 64 -29 47 -21 82 25 101 45 19 48 18 84 -12 27
-22 31 -32 31 -73 0 -39 6 -56 34 -93 19 -25 42 -48 51 -52 37 -14 85 72 85
155 0 138 95 329 164 329 22 0 22 -1 24 -217 2 -192 0 -228 -18 -298 -43 -167
-88 -245 -156 -271 -24 -9 -44 -20 -44 -24 0 -4 16 -20 35 -34 41 -31 42 -38
14 -77 -36 -51 -29 -53 161 -51 142 1 177 4 189 17 14 14 17 90 21 618 3 336
1 608 -4 615 -14 20 -48 14 -96 -18z"/>
<path d="M8546 13413 c-1 -2 -89 -4 -195 -6 -150 -3 -194 -6 -205 -18 -14 -16
-83 -209 -120 -339 -92 -325 -118 -526 -77 -616 10 -23 23 -44 29 -48 7 -4 7
-16 -1 -35 -8 -23 -7 -42 8 -91 33 -109 175 -325 250 -380 12 -9 54 -17 110
-21 102 -7 213 -29 362 -70 57 -16 114 -29 128 -29 14 0 80 -20 147 -45 67
-25 126 -45 131 -45 6 0 40 -14 76 -31 36 -18 119 -56 185 -85 65 -30 129 -63
143 -73 13 -11 37 -22 52 -26 16 -3 39 -17 51 -31 32 -33 64 -30 135 12 33 20
84 47 113 60 30 13 70 37 90 53 31 24 126 77 167 92 6 3 28 15 49 29 59 36 26
36 -46 -2 -144 -74 -194 -75 -341 -3 -61 30 -131 59 -154 65 -58 15 -123 77
-123 116 1 16 7 40 15 54 18 32 19 121 1 163 -23 55 -60 87 -101 87 -29 0 -36
3 -33 18 2 13 15 18 58 20 41 2 61 9 80 26 33 31 62 39 136 37 35 -1 65 3 69
9 3 5 26 23 50 40 42 29 44 29 85 15 24 -8 54 -12 69 -8 33 8 98 50 105 69 4
9 21 14 54 14 55 0 142 33 142 54 0 8 -24 32 -52 54 -62 46 -128 109 -128 121
0 22 27 30 68 19 30 -8 94 -7 225 1 119 7 201 8 233 2 77 -15 272 -17 286 -3
9 9 9 27 0 75 -57 281 -184 660 -231 683 -16 8 -251 12 -834 12 -447 1 -913 2
-1035 4 -123 2 -225 2 -226 1z m948 -114 c31 -24 97 -119 119 -170 8 -19 38
-65 66 -103 52 -70 56 -86 19 -86 -12 0 -31 -9 -43 -20 -19 -17 -26 -19 -50
-10 -20 8 -43 8 -82 0 -38 -8 -78 -8 -146 0 -51 6 -109 10 -128 9 -20 -2 -46
5 -62 15 -19 13 -38 17 -62 13 -76 -12 -57 46 34 108 52 35 85 68 131 130 95
132 146 160 204 114z m1073 -431 c5 -7 17 -42 27 -77 22 -84 16 -91 -95 -96
-126 -5 -138 15 -59 103 68 76 106 97 127 70z m-1387 -39 c-27 -52 -93 -129
-111 -129 -11 0 -19 4 -19 9 0 17 79 129 102 145 28 20 44 6 28 -25z m160 -8
c0 -33 -39 -96 -60 -96 -20 0 -14 39 13 88 25 44 47 49 47 8z m237 -73 c-3 -8
-6 -5 -6 6 -1 11 2 17 5 13 3 -3 4 -12 1 -19z m321 -190 c57 -59 101 -112 97
-118 -16 -26 -98 54 -186 182 -32 48 -59 91 -59 95 0 5 10 -5 22 -22 12 -16
69 -78 126 -137z m-833 62 c38 -25 56 -25 105 0 35 18 49 19 118 11 88 -9 128
-27 166 -71 39 -47 35 -84 -14 -133 -38 -38 -42 -39 -87 -33 -25 3 -62 1 -83
-5 -32 -10 -42 -8 -80 11 -33 17 -54 21 -89 17 -35 -4 -54 -1 -79 15 -28 17
-44 20 -95 14 -34 -3 -65 -10 -69 -14 -5 -5 9 -27 31 -50 36 -40 41 -42 78
-36 30 4 47 2 66 -11 20 -13 36 -15 69 -9 53 10 64 8 108 -19 19 -12 55 -29
80 -38 27 -9 50 -25 57 -39 18 -37 27 -144 14 -169 -14 -26 -55 -28 -73 -3
-20 28 -34 33 -62 22 -31 -11 -36 4 -6 20 26 14 27 56 1 63 -10 2 -33 -2 -51
-10 -31 -12 -35 -12 -57 8 -20 19 -26 21 -48 11 -44 -20 -69 -14 -85 20 -12
25 -26 34 -75 49 -33 10 -86 21 -117 25 l-58 7 0 -41 c0 -71 -4 -74 -63 -51
-39 16 -65 19 -102 15 -69 -8 -79 0 -71 62 9 67 -4 77 -87 69 -74 -8 -103 4
-72 28 29 23 120 69 198 100 l69 27 22 -21 c12 -12 29 -21 38 -21 36 0 78 24
97 55 21 36 77 69 166 99 28 9 61 23 75 31 32 18 30 18 65 -5z m633 -106 c-3
-16 -7 -13 -21 13 -23 43 -21 52 4 26 12 -11 19 -29 17 -39z m-1514 -136 c59
2 75 -6 76 -35 0 -22 -134 -9 -212 19 -48 18 -33 32 25 23 28 -5 79 -8 111 -7z
m1381 -38 c0 -7 -6 -15 -12 -17 -8 -3 -13 4 -13 17 0 13 5 20 13 18 6 -3 12
-11 12 -18z m-1435 -120 c18 -33 3 -62 -28 -58 -34 4 -43 45 -16 65 24 18 31
16 44 -7z m118 -31 c4 -32 -23 -61 -52 -57 -15 2 -22 11 -24 31 -4 37 15 59
47 55 20 -2 27 -9 29 -29z m692 -64 c10 -13 9 -15 -9 -15 -12 0 -21 6 -21 15
0 8 4 15 9 15 5 0 14 -7 21 -15z m178 -22 c-2 -11 -14 -19 -31 -21 -30 -4 -36
12 -9 27 26 16 44 13 40 -6z m-398 -27 c0 -3 -4 -8 -10 -11 -5 -3 -10 -1 -10
4 0 6 5 11 10 11 6 0 10 -2 10 -4z"/>
<path d="M9305 12120 c-3 -5 -1 -10 4 -10 6 0 11 5 11 10 0 6 -2 10 -4 10 -3
0 -8 -4 -11 -10z"/>
<path d="M10450 12404 c0 -3 9 -19 21 -35 13 -19 19 -41 17 -62 -2 -26 0 -32
17 -32 30 0 27 76 -5 110 -21 23 -50 34 -50 19z"/>
<path d="M10076 12308 c-8 -13 -19 -42 -26 -65 -6 -24 -19 -47 -29 -52 -25
-14 -168 -8 -212 9 -54 20 -73 9 -65 -38 4 -20 11 -87 16 -149 10 -135 18
-153 66 -153 41 0 51 17 35 61 -9 27 -8 37 10 65 41 67 86 30 75 -62 -7 -57
-1 -64 54 -64 38 0 48 16 47 77 -1 42 5 62 32 105 21 33 37 75 43 113 5 33 14
76 20 96 15 51 8 73 -24 77 -19 2 -31 -3 -42 -20z"/>
<path d="M10294 12013 c-3 -16 -10 -41 -15 -57 -13 -42 -11 -89 4 -111 18 -23
34 -13 42 28 4 17 14 55 22 84 13 43 14 55 3 67 -20 26 -49 20 -56 -11z"/>
<path d="M6436 8655 c-9 -9 -16 -25 -16 -36 0 -19 -77 -257 -116 -360 -29 -75
-21 -79 155 -79 80 0 152 4 160 9 17 11 17 11 -60 241 -83 250 -88 260 -123
225z"/>
<path d="M9568 8918 c-17 -12 -18 -53 -18 -584 0 -314 2 -578 6 -587 9 -25 34
-28 174 -24 136 3 170 14 209 63 21 26 21 35 21 535 0 367 -3 515 -12 534 -6
14 -28 36 -47 48 -32 19 -52 22 -176 25 -105 3 -144 0 -157 -10z"/>
<path d="M11597 8919 c-72 -10 -134 -44 -162 -86 -21 -31 -22 -37 -21 -516 l1
-486 30 -31 c56 -60 104 -74 250 -75 116 0 135 2 172 22 77 42 73 9 73 561 0
543 1 531 -62 570 -68 41 -179 57 -281 41z"/>
<path d="M12783 17103 c-9 -16 -69 -106 -132 -202 -64 -96 -122 -184 -130
-196 -8 -12 -12 -28 -9 -36 6 -16 438 -309 474 -322 12 -4 27 -21 34 -36 10
-24 37 -51 76 -74 6 -3 30 7 55 24 67 44 106 40 172 -18 30 -27 79 -70 110
-96 65 -55 71 -80 37 -147 -30 -59 -26 -73 38 -126 31 -26 76 -65 99 -87 46
-44 66 -41 76 11 9 48 34 152 81 335 25 98 46 191 46 207 0 23 -17 44 -96 114
-53 47 -101 86 -106 86 -5 0 -22 -7 -36 -15 -45 -25 -468 -165 -500 -165 -30
0 -42 14 -42 51 0 11 -13 25 -32 35 -59 30 -209 135 -215 149 -4 13 133 233
219 352 17 22 27 46 24 52 -4 6 -33 27 -64 48 -31 20 -70 47 -85 60 -39 31
-72 30 -94 -4z m777 -719 c11 -12 11 -24 -2 -67 -9 -29 -19 -64 -22 -79 -9
-41 -35 -35 -100 19 -77 65 -76 83 12 116 80 30 95 32 112 11z"/>
<path d="M6222 17085 c-29 -13 -144 -86 -255 -162 -111 -76 -215 -147 -232
-158 -41 -29 -42 -47 -2 -92 38 -42 228 -323 248 -365 6 -15 18 -30 27 -33 9
-3 63 27 136 77 67 45 173 117 238 160 118 80 197 153 199 185 3 40 -5 60 -39
108 -48 66 -60 74 -106 75 -35 0 -38 2 -32 23 19 65 18 77 -7 120 -48 81 -98
99 -175 62z m-50 -202 c47 -45 39 -74 -36 -127 -36 -25 -74 -46 -85 -46 -24 0
-71 64 -71 96 0 27 102 102 139 103 14 1 37 -11 53 -26z m137 -200 c49 -59 43
-83 -33 -137 -36 -25 -71 -46 -80 -46 -21 0 -86 80 -86 107 0 27 111 113 146
113 14 0 35 -15 53 -37z"/>
<path d="M5411 16521 c-81 -79 -111 -114 -111 -132 0 -24 43 -158 74 -231 20
-46 20 -74 2 -81 -7 -3 -71 21 -141 54 -70 32 -138 59 -151 59 -16 0 -59 -34
-136 -107 -62 -58 -113 -112 -113 -119 0 -7 73 -87 162 -178 89 -92 170 -180
180 -196 23 -39 54 -39 87 1 14 17 26 34 26 39 0 4 -58 68 -130 142 -171 175
-173 204 -11 127 47 -23 109 -50 136 -61 28 -11 64 -28 81 -39 54 -33 88 -26
150 32 30 29 54 58 54 66 0 14 -72 218 -120 341 -19 50 -26 92 -15 92 18 0 65
-45 147 -138 111 -128 134 -152 146 -152 18 0 184 168 180 183 -1 9 -55 69
-118 134 -63 65 -144 150 -179 190 -35 40 -70 74 -77 77 -6 2 -62 -44 -123
-103z"/>
<path d="M14037 16112 c-10 -10 -17 -23 -17 -29 0 -6 27 -38 60 -71 33 -33 60
-67 60 -76 0 -8 -10 -26 -22 -39 -21 -22 -241 -215 -296 -259 -12 -10 -22 -22
-22 -28 0 -5 21 -33 48 -62 26 -29 60 -70 76 -90 32 -42 67 -50 88 -19 7 10
65 65 128 122 63 57 125 114 139 127 13 12 34 22 45 22 23 0 66 -40 105 -97
24 -36 51 -42 75 -17 35 35 41 27 -268 374 -66 74 -126 141 -135 148 -21 17
-45 15 -64 -6z"/>
<path d="M4536 15568 c-82 -101 -136 -172 -136 -179 0 -4 13 -29 29 -56 16
-26 68 -147 116 -268 47 -121 90 -227 94 -235 16 -29 44 -16 74 32 l29 47 -31
48 c-55 82 -54 88 27 196 108 143 112 147 156 147 23 -1 52 -7 66 -15 35 -20
67 -18 79 4 6 10 40 55 76 101 36 46 65 90 63 99 -3 15 -48 26 -273 65 -55 10
-144 26 -197 37 -53 10 -106 19 -117 19 -11 0 -35 -18 -55 -42z m138 -221 c75
-18 79 -35 24 -104 -64 -81 -80 -81 -118 3 -30 66 -36 95 -23 107 9 10 60 7
117 -6z"/>
<path d="M14539 15457 c-48 -43 -299 -226 -346 -253 -49 -27 -52 -53 -15 -101
16 -21 48 -64 71 -95 44 -61 60 -69 82 -42 18 22 264 205 351 261 37 24 68 50
68 57 0 7 -22 42 -50 76 -27 34 -59 77 -71 96 -26 42 -44 42 -90 1z"/>
<path d="M14826 15153 c-8 -16 -82 -122 -165 -238 -83 -115 -151 -218 -151
-228 0 -25 104 -208 134 -236 l24 -22 173 16 c96 9 228 19 294 23 119 7 120 7
122 32 2 16 -8 38 -25 59 l-29 34 -64 -11 c-64 -11 -293 -34 -359 -36 -31 -1
-35 2 -38 25 -2 16 6 37 21 55 13 16 61 81 107 144 45 63 93 123 106 133 13
10 24 27 24 38 0 19 -90 188 -118 222 -21 24 -39 21 -56 -10z"/>
<path d="M4109 14964 c-22 -27 -209 -366 -235 -426 -13 -32 -24 -68 -24 -81 0
-24 29 -70 60 -94 34 -28 170 -93 193 -93 43 0 79 42 152 175 73 133 95 156
134 136 20 -11 26 -28 21 -60 -2 -16 -74 -146 -132 -237 -43 -69 -47 -89 -17
-104 43 -23 61 -5 144 142 102 184 163 304 177 350 16 54 -11 91 -119 157
-149 92 -180 79 -297 -129 -38 -67 -76 -122 -86 -125 -27 -9 -60 12 -60 37 0
23 59 135 127 241 45 71 54 111 27 121 -27 10 -51 7 -65 -10z"/>
<path d="M14758 14208 c-5 -14 18 -73 40 -100 11 -13 33 -18 85 -20 61 -3 72
-6 88 -28 26 -35 109 -239 109 -268 0 -15 -18 -40 -50 -71 -27 -26 -50 -55
-50 -63 0 -9 12 -42 26 -74 15 -33 34 -81 43 -108 9 -27 24 -54 35 -60 15 -9
22 -6 40 18 11 16 64 78 116 138 52 60 110 128 128 151 18 23 50 60 71 82 58
60 65 79 46 118 -9 18 -30 66 -46 108 -16 42 -37 83 -47 91 -9 9 -44 18 -77
21 -106 10 -279 34 -521 74 -21 3 -33 0 -36 -9z m505 -164 c28 -9 20 -39 -29
-98 -63 -77 -83 -76 -118 7 -27 64 -31 88 -19 101 8 7 130 0 166 -10z"/>
<path d="M4195 14100 c-16 -4 -55 -8 -86 -9 -30 0 -102 -7 -160 -15 -57 -8
-141 -17 -187 -21 -54 -5 -89 -13 -101 -24 -18 -15 -101 -212 -101 -238 0 -7
26 -42 58 -80 49 -56 161 -199 308 -390 31 -41 39 -41 59 -3 39 76 39 75 -20
135 -37 36 -55 63 -55 79 0 43 89 259 117 285 24 20 33 22 82 17 31 -3 61 -3
67 2 6 4 33 60 59 125 37 95 44 121 35 132 -13 16 -28 17 -75 5z m-307 -292
c18 -18 15 -40 -14 -107 -18 -42 -32 -61 -44 -61 -20 0 -120 113 -120 135 0
22 24 34 75 38 28 2 59 4 71 5 11 1 25 -3 32 -10z"/>
<path d="M15724 13636 c-8 -14 -26 -63 -39 -109 -30 -111 -37 -123 -157 -262
-57 -66 -131 -154 -165 -195 -34 -41 -88 -104 -121 -139 -56 -62 -59 -64 -89
-54 -42 15 -77 -3 -81 -42 -2 -16 3 -67 12 -114 80 -438 110 -860 95 -1300
-13 -363 -51 -694 -90 -793 -22 -56 -19 -92 9 -107 9 -5 184 -48 387 -96 204
-48 390 -94 415 -101 95 -29 109 -18 121 99 76 720 86 1391 30 1862 -6 44 -15
125 -21 180 -26 236 -81 534 -156 845 -46 188 -84 322 -96 338 -16 19 -36 14
-54 -12z"/>
<path d="M3215 13558 c-3 -13 -14 -63 -25 -113 -11 -49 -29 -124 -40 -165 -63
-240 -129 -618 -165 -955 -59 -551 -42 -1307 40 -1850 8 -55 15 -117 15 -137
0 -29 19 -68 34 -68 13 0 214 53 244 64 20 8 93 26 162 41 311 65 396 87 414
105 18 17 18 21 3 87 -23 96 -53 315 -74 538 -21 234 -24 779 -4 955 32 283
62 513 77 586 31 150 36 131 -58 235 -46 52 -100 115 -121 141 -32 40 -71 67
-82 56 -1 -1 5 -36 16 -75 17 -67 17 -78 3 -140 -25 -114 -58 -333 -50 -340
14 -15 26 15 26 66 0 32 7 80 15 107 8 27 15 62 15 78 0 42 22 107 37 113 16
6 59 -31 79 -68 11 -23 11 -37 -1 -95 -7 -38 -19 -107 -25 -154 -6 -47 -18
-124 -26 -171 -8 -48 -14 -109 -14 -135 0 -27 -7 -101 -16 -164 -18 -139 -22
-700 -5 -885 24 -271 42 -443 51 -488 25 -122 6 -171 -67 -165 -36 3 -38 5
-47 46 -11 53 -30 56 -21 3 8 -48 -13 -103 -49 -126 -21 -14 -110 -39 -217
-61 -29 -7 -57 15 -63 49 -16 87 -45 358 -68 637 -17 200 -17 742 0 935 39
455 77 733 143 1025 11 52 25 114 30 138 10 49 21 73 43 92 33 26 13 66 -103
204 -66 79 -97 94 -106 54z"/>
<path d="M3558 12124 c-5 -4 -8 -26 -8 -48 1 -33 3 -38 11 -23 11 19 8 83 -3
71z"/>
<path d="M3531 11673 c1 -39 2 -43 9 -23 12 36 12 70 0 70 -5 0 -10 -21 -9
-47z"/>
<path d="M3530 11525 c0 -14 5 -25 10 -25 6 0 10 11 10 25 0 14 -4 25 -10 25
-5 0 -10 -11 -10 -25z"/>
<path d="M3563 11045 c0 -22 2 -30 4 -17 2 12 2 30 0 40 -3 9 -5 -1 -4 -23z"/>
<path d="M3796 10229 c-31 -18 -404 -129 -434 -129 -52 0 -65 -36 -38 -107 8
-21 33 -103 56 -183 86 -301 101 -328 180 -337 45 -5 77 2 243 51 119 35 156
54 178 90 32 52 26 93 -51 351 -22 72 -47 156 -55 187 -15 53 -36 88 -53 88
-4 0 -15 -5 -26 -11z m31 -267 c17 -11 43 -88 43 -127 0 -41 -6 -44 -302 -128
-47 -14 -61 -3 -88 71 -25 66 -17 98 27 108 27 5 69 18 208 63 66 21 94 25
112 13z"/>
<path d="M15140 10188 c-41 -27 -63 -89 -124 -343 -42 -173 -44 -205 -16 -250
27 -43 64 -60 228 -101 259 -65 278 -53 342 216 18 74 40 160 49 190 9 30 16
79 16 108 0 49 -3 56 -37 87 -25 23 -59 41 -110 55 -40 11 -97 28 -126 36 -29
8 -83 18 -120 21 -59 4 -71 2 -102 -19z m179 -242 c138 -33 187 -53 197 -81 3
-7 -4 -45 -16 -85 -27 -89 -45 -101 -123 -77 -28 9 -81 23 -117 33 -135 34
-144 38 -153 64 -15 43 36 180 67 180 2 0 68 -15 145 -34z"/>
<path d="M4005 9490 c-24 -15 -247 -113 -432 -190 -29 -12 -29 -19 1 -78 12
-26 58 -130 102 -231 84 -196 101 -219 148 -202 14 6 26 16 26 23 0 7 -25 64
-56 127 -67 137 -67 157 -4 189 71 35 83 31 117 -40 16 -35 38 -85 48 -113 25
-69 38 -81 69 -67 48 22 48 39 -5 147 -27 55 -49 110 -49 123 0 29 54 63 95
60 33 -3 51 -31 101 -163 34 -89 45 -102 78 -87 13 6 27 19 30 29 4 12 -25 89
-75 204 -44 101 -87 202 -95 223 -26 71 -45 80 -99 46z"/>
<path d="M14883 9414 c-28 -30 -57 -91 -126 -259 -109 -268 -115 -288 -98
-309 8 -9 20 -16 27 -16 23 0 271 -98 411 -162 24 -11 50 -18 60 -16 23 4 100
195 86 216 -5 8 -47 28 -93 44 -99 35 -110 42 -110 73 0 45 39 61 162 69 77 5
118 12 129 22 27 24 94 203 81 216 -8 8 -39 6 -112 -6 -66 -11 -106 -14 -117
-7 -9 5 -22 29 -28 53 -9 40 -14 45 -80 77 -38 18 -89 36 -113 39 -39 4 -45 2
-79 -34z m85 -224 c40 -24 41 -52 8 -118 -38 -75 -49 -81 -104 -52 -26 14 -48
33 -50 43 -2 10 10 47 27 82 26 57 33 65 58 65 15 0 43 -9 61 -20z"/>
<path d="M4240 8910 c-30 -20 -131 -79 -224 -131 -92 -51 -171 -100 -174 -107
-3 -8 2 -26 12 -41 9 -14 32 -56 52 -93 25 -46 42 -68 55 -68 10 0 44 18 75
40 89 62 89 62 180 -98 77 -136 112 -172 166 -172 46 0 132 44 185 93 48 45
52 83 14 163 -25 54 -187 348 -238 432 -18 30 -38 27 -103 -18z m167 -275 c45
-69 44 -98 -7 -130 -88 -56 -114 -49 -161 39 -19 36 -22 50 -13 63 15 24 115
84 134 80 8 -1 30 -25 47 -52z"/>
<path d="M14588 8773 c-26 -31 -30 -55 -12 -74 10 -11 21 -19 26 -19 10 0 281
-154 320 -182 42 -29 36 -62 -28 -175 -69 -119 -80 -133 -112 -133 -23 0 -207
102 -320 178 -42 28 -58 33 -70 25 -26 -16 -124 -182 -118 -199 3 -8 27 -24
53 -36 25 -11 70 -35 98 -53 107 -69 245 -135 281 -135 66 0 111 37 167 140
27 50 97 175 145 260 22 38 32 69 32 98 0 61 -46 105 -205 193 -71 39 -149 85
-173 100 -50 34 -63 35 -84 12z"/>
<path d="M4765 8085 c-27 -7 -102 -20 -165 -29 -63 -9 -155 -23 -205 -31 -49
-9 -103 -16 -120 -18 -45 -3 -46 -38 -1 -83 l35 -35 40 21 c57 29 101 26 133
-7 35 -38 122 -153 137 -181 16 -29 0 -80 -34 -112 -25 -24 -34 -73 -15 -85 5
-3 37 -42 70 -86 34 -43 67 -79 74 -79 7 0 61 94 120 210 58 115 120 232 136
260 17 28 30 58 30 67 0 8 -32 58 -71 109 -78 102 -76 101 -164 79z m5 -131
c0 -30 -73 -144 -92 -144 -13 0 -67 60 -85 94 -15 28 -14 31 7 48 12 10 36 18
54 19 17 1 42 4 56 8 30 9 60 -4 60 -25z"/>
<path d="M14173 8032 c-32 -27 -71 -74 -215 -261 -39 -52 -89 -114 -110 -138
-48 -56 -48 -67 2 -93 14 -7 57 -39 95 -70 39 -31 111 -88 160 -127 50 -39 99
-80 109 -92 27 -29 41 -26 73 16 15 20 44 55 64 77 56 63 55 84 -3 119 -51 31
-128 100 -128 116 0 6 9 20 21 32 18 18 28 20 72 14 29 -4 79 -16 112 -26 88
-27 99 -25 142 28 21 25 53 63 71 83 56 65 44 79 -84 99 -39 6 -84 15 -99 21
-24 9 -27 14 -23 48 7 54 -7 77 -82 132 -82 61 -125 66 -177 22z m32 -213 c19
-17 35 -39 35 -49 0 -25 -87 -130 -108 -130 -25 0 -92 58 -92 80 0 27 87 130
110 130 11 0 35 -14 55 -31z"/>
<path d="M5167 7653 c-12 -15 -95 -102 -184 -193 -90 -91 -163 -173 -163 -181
0 -20 145 -169 164 -169 8 0 35 27 60 59 79 102 121 123 152 76 16 -24 15 -30
-20 -130 -20 -58 -36 -117 -36 -131 0 -19 19 -47 67 -98 36 -39 73 -75 81 -80
24 -14 42 16 64 110 11 49 25 95 31 103 8 9 25 11 59 7 49 -7 49 -7 109 51 75
72 93 103 84 152 -5 30 -39 68 -216 244 -115 114 -214 207 -220 207 -6 0 -20
-12 -32 -27z m220 -266 c29 -30 53 -61 53 -69 0 -9 -13 -30 -29 -47 -44 -47
-78 -42 -135 19 -25 27 -46 56 -46 63 0 17 74 87 92 87 6 0 35 -24 65 -53z"/>
<path d="M13691 7409 c-49 -29 -343 -303 -363 -337 -10 -17 -18 -45 -18 -64 0
-47 22 -82 130 -203 135 -152 193 -181 269 -134 51 31 339 298 362 336 38 61
27 113 -39 188 -202 230 -258 265 -341 214z m18 -217 c123 -127 181 -198 181
-219 0 -27 -105 -132 -132 -133 -21 0 -48 25 -161 151 -107 119 -109 128 -30
198 31 28 66 51 76 51 11 0 40 -22 66 -48z"/>
<path d="M5706 7114 c-27 -26 -19 -52 22 -73 50 -25 92 -66 92 -88 0 -10 -32
-61 -71 -113 -39 -52 -88 -120 -109 -150 -21 -30 -47 -64 -59 -74 -11 -11 -21
-26 -21 -35 0 -9 39 -45 86 -79 99 -74 116 -75 153 -11 21 38 83 125 186 262
46 61 68 61 135 2 28 -25 56 -45 63 -45 21 0 37 22 37 52 0 29 11 20 -342 281
-65 48 -126 87 -137 87 -11 0 -27 -7 -35 -16z"/>
<path d="M12640 6636 c-163 -94 -216 -129 -218 -146 -2 -12 11 -43 32 -73 36
-52 129 -218 188 -335 37 -70 56 -82 96 -54 15 11 106 63 202 117 96 54 185
108 198 119 44 39 8 108 -40 76 -81 -51 -218 -130 -226 -130 -15 0 -56 52 -72
89 -12 29 -11 34 10 56 12 13 60 43 107 66 46 24 89 49 95 56 15 18 2 60 -23
73 -17 9 -29 5 -72 -23 -95 -63 -164 -98 -180 -91 -21 8 -57 66 -57 91 0 27
14 38 134 103 61 34 102 62 104 73 4 22 -25 57 -47 57 -9 -1 -113 -56 -231
-124z"/>
<path d="M6435 6650 c-24 -26 -375 -259 -442 -294 -21 -10 -33 -24 -33 -36 0
-23 54 -60 87 -60 12 0 28 9 37 21 19 28 81 69 103 69 21 0 234 -116 245 -134
12 -17 9 -92 -3 -120 -16 -35 -6 -45 106 -106 95 -51 125 -60 125 -37 2 87 13
251 20 282 5 22 10 101 10 176 0 157 9 141 -117 212 -91 52 -112 56 -138 27z
m19 -214 c-2 -84 -17 -113 -52 -98 -98 40 -126 86 -74 119 15 9 40 28 56 41
16 12 38 22 50 20 19 -3 21 -9 20 -82z"/>
<path d="M12180 6410 c-26 -8 -246 -94 -387 -150 -99 -39 -106 -52 -70 -124
32 -63 148 -360 156 -400 10 -45 31 -52 82 -29 24 12 64 29 89 38 47 18 130
51 270 106 52 21 99 48 123 71 39 37 40 38 34 95 -3 32 -18 90 -34 128 -16 39
-42 103 -58 143 -37 94 -77 132 -138 131 -23 0 -53 -4 -67 -9z m-48 -147 c8
-10 27 -52 43 -93 16 -41 39 -101 52 -132 28 -69 29 -100 6 -119 -24 -20 -90
-49 -110 -49 -18 0 -53 28 -53 43 0 5 -25 72 -56 149 -31 76 -53 145 -50 154
7 18 102 64 132 64 11 0 28 -8 36 -17z"/>
<path d="M6957 6373 c-3 -5 -34 -99 -70 -210 -36 -111 -73 -215 -81 -232 -19
-36 -21 -75 -3 -88 21 -17 55 -21 70 -9 8 6 31 65 51 131 59 191 70 220 88
223 22 4 27 -24 33 -198 8 -232 8 -231 105 -265 58 -20 66 -15 157 94 39 47
95 114 124 149 61 73 83 80 76 25 -4 -33 -55 -184 -98 -291 -10 -23 -11 -37
-3 -49 14 -23 204 -87 218 -73 6 6 19 38 29 73 48 165 88 281 140 409 9 22 8
31 -3 42 -13 12 -241 96 -262 96 -15 0 -74 -58 -135 -134 -109 -136 -120 -131
-125 58 -2 99 -7 138 -19 156 -11 17 -47 34 -130 61 -114 38 -154 46 -162 32z"/>
<path d="M7898 6097 c-7 -8 -28 -92 -46 -188 -19 -96 -43 -209 -54 -251 -16
-62 -18 -81 -8 -92 15 -18 65 -35 133 -46 29 -4 125 -22 214 -40 158 -33 163
-33 183 -15 25 23 26 51 1 64 -10 6 -68 19 -129 30 -160 28 -170 37 -145 124
17 60 34 69 103 52 190 -45 202 -44 208 9 5 38 -14 56 -60 56 -47 0 -178 28
-195 42 -15 12 -17 57 -3 92 15 39 49 41 177 11 103 -24 117 -25 130 -12 22
22 9 62 -24 75 -36 13 -71 22 -158 37 -177 32 -248 47 -271 55 -33 13 -40 13
-56 -3z"/>
<path d="M10885 6029 c-16 -5 -52 -14 -80 -19 -67 -14 -71 -20 -52 -82 16 -52
50 -228 62 -318 4 -25 10 -58 15 -75 4 -16 11 -42 14 -57 5 -24 11 -28 41 -28
19 0 67 7 107 15 40 8 127 23 193 35 161 28 161 28 179 46 20 19 21 58 2 73
-11 9 -27 9 -68 -3 -29 -8 -88 -21 -132 -28 -71 -11 -79 -11 -90 5 -12 16 -23
62 -66 292 -11 61 -23 120 -25 133 -4 17 -12 22 -38 21 -17 0 -45 -5 -62 -10z"/>
<path d="M8523 5968 c-6 -7 -13 -60 -17 -118 -9 -144 -26 -317 -36 -365 -11
-48 -1 -62 48 -71 48 -9 62 12 62 94 0 35 5 118 11 185 15 171 41 191 90 69
58 -146 152 -349 169 -363 12 -11 49 -19 107 -23 48 -4 108 -12 132 -18 41
-10 46 -9 63 12 12 15 18 39 18 79 1 31 5 88 11 126 19 137 29 328 17 342 -13
17 -62 17 -76 1 -10 -13 -29 -189 -35 -320 -3 -73 -17 -99 -43 -83 -8 6 -41
71 -73 145 -97 227 -128 288 -147 294 -19 5 -228 26 -270 26 -12 0 -26 -6 -31
-12z"/>
<path d="M10273 5926 c-45 -6 -86 -15 -92 -21 -5 -5 -18 -35 -29 -65 -24 -69
-162 -383 -196 -447 -33 -61 -22 -76 44 -65 47 8 63 26 75 84 3 15 16 39 29
54 21 26 32 29 147 41 144 15 158 10 196 -68 35 -70 33 -69 136 -63 173 10
178 12 129 80 -15 21 -79 129 -141 239 -62 110 -123 210 -134 223 -23 25 -36
25 -164 8z m10 -193 c50 -79 57 -99 43 -118 -14 -19 -89 -31 -130 -21 -21 5
-26 13 -26 36 0 16 4 31 9 34 5 3 12 18 16 33 9 39 33 73 50 73 8 0 25 -17 38
-37z"/>
<path d="M9304 5905 c-35 -49 -5 -75 90 -75 43 0 77 -5 84 -12 15 -15 16 -176
2 -327 -13 -144 -15 -141 120 -141 76 0 111 4 117 13 4 6 6 107 5 223 -4 256
-7 249 105 242 84 -6 110 5 98 41 -14 46 -32 49 -329 53 -268 3 -279 2 -292
-17z"/>
<path d="M370 1115 l0 -205 1025 0 1025 0 0 205 0 205 -1025 0 -1025 0 0 -205z"/>
<path d="M4480 1115 l0 -205 1025 0 1025 0 0 205 0 205 -1025 0 -1025 0 0
-205z"/>
<path d="M9170 1115 l0 -205 1320 0 1320 0 0 205 0 205 -1320 0 -1320 0 0
-205z"/>
<path d="M11820 1115 l0 -205 3520 0 3520 0 0 205 0 205 -3520 0 -3520 0 0
-205z"/>
</g>
</svg>
